{
	"asset":{
		"generator":"Khronos glTF Blender I/O v4.1.63",
		"version":"2.0"
	},
	"scene":0,
	"scenes":[
		{
			"name":"Scene",
			"nodes":[
				0
			]
		}
	],
	"nodes":[
		{
			"mesh":0,
			"name":"a:group17_pCube98",
			"rotation":[
				0.7071068286895752,
				0,
				0,
				0.7071068286895752
			],
			"scale":[
				0.009999999776482582,
				0.009999999776482582,
				0.009999999776482582
			]
		}
	],
	"materials":[
		{
			"alphaMode":"BLEND",
			"doubleSided":true,
			"name":"a:group17_pCube98SG1",
			"pbrMetallicRoughness":{
				"metallicFactor":0,
				"roughnessFactor":0.5527864098548889
			}
		}
	],
	"meshes":[
		{
			"name":"Mesh",
			"primitives":[
				{
					"attributes":{
						"POSITION":0,
						"NORMAL":1,
						"TEXCOORD_0":2
					},
					"indices":3,
					"material":0
				}
			]
		}
	],
	"accessors":[
		{
			"bufferView":0,
			"componentType":5126,
			"count":12842,
			"max":[
				11.47964859008789,
				22.89935302734375,
				0.10191299766302109
			],
			"min":[
				-15.279662132263184,
				-21.881868362426758,
				-44.14096450805664
			],
			"type":"VEC3"
		},
		{
			"bufferView":1,
			"componentType":5126,
			"count":12842,
			"type":"VEC3"
		},
		{
			"bufferView":2,
			"componentType":5126,
			"count":12842,
			"type":"VEC2"
		},
		{
			"bufferView":3,
			"componentType":5123,
			"count":39600,
			"type":"SCALAR"
		}
	],
	"bufferViews":[
		{
			"buffer":0,
			"byteLength":154104,
			"byteOffset":0,
			"target":34962
		},
		{
			"buffer":0,
			"byteLength":154104,
			"byteOffset":154104,
			"target":34962
		},
		{
			"buffer":0,
			"byteLength":102736,
			"byteOffset":308208,
			"target":34962
		},
		{
			"buffer":0,
			"byteLength":79200,
			"byteOffset":410944,
			"target":34963
		}
	],
	"buffers":[
		{
			"byteLength":490144,
			"uri":"SuperSushiCart_01.fbx.bin"
		}
	]
}
